<svg height="221.066" viewBox="0 0 375.703 221.066" width="375.703" xmlns="http://www.w3.org/2000/svg"><g fill="none" stroke="#e0e0e0" stroke-linecap="round" stroke-width=".5"><path d="m0 0 20.871 2.25" transform="translate(354.319 100.615)"/><path d="m20.871 0-20.871 2.25" transform="translate(4.445 100.615)"/><path d="m0 0 48.379 119.957" transform="translate(196.942 100.615)"/><path d="m48.379 0-48.379 119.957" transform="translate(134.313 100.615)"/><path d="m0 0 145.163 120.1" transform="translate(211.267 100.615)"/><path d="m145.163 0-145.163 120.1" transform="translate(23.205 100.615)"/><path d="m0 0 149.494 74.178" transform="translate(225.624 100.624)"/><path d="m149.494 0-149.494 74.178" transform="translate(4.516 100.624)"/><path d="m0 0 135.15 47.916" transform="translate(239.912 100.615)"/><path d="m135.15 0-135.15 47.916" transform="translate(4.572 100.615)"/><path d="m120.982 33.306-120.982-33.306" transform="translate(254.107 100.593)"/><path d="m0 33.306 120.982-33.306" transform="translate(4.545 100.593)"/><path d="m0 0 106.18 24.157" transform="translate(268.79 100.593)"/><path d="m106.18 0-106.18 24.157" transform="translate(4.664 100.593)"/><path d="m0 0 92.22 17.5" transform="translate(283.13 100.593)"/><path d="m92.22 0-92.22 17.5" transform="translate(4.284 100.593)"/><path d="m0 0 77.8 12.961" transform="translate(297.368 100.593)"/><path d="m77.8 0-77.8 12.961" transform="translate(4.464 100.593)"/><path d="m0 0 63.614 9.292" transform="translate(311.701 100.624)"/><path d="m63.614 0-63.614 9.292" transform="translate(4.319 100.624)"/><path d="m0 0 49.219 6.473" transform="translate(326.048 100.586)"/><path d="m49.219 0-49.219 6.473" transform="translate(4.366 100.586)"/><path d="m0 0 35.217 4.163" transform="translate(339.973 100.58)"/><path d="m35.217 0-35.217 4.163" transform="translate(4.444 100.58)"/><path d="m4.403 212.105h370.83"/><path d="m4.403 195.895h370.83"/><path d="m4.403 181.52h370.83"/><path d="m4.403 168.98h370.83"/><path d="m4.403 157.97h370.83"/><path d="m4.403 148.488h370.83"/><path d="m4.403 137.404h370.83"/><path d="m4.403 127.08h370.83"/><path d="m4.403 122.186h370.83"/><path d="m4.403 117.904h370.83"/><path d="m4.403 114.234h370.83"/><path d="m4.403 111.481h370.83"/><path d="m4.403 109.035h370.83"/><path d="m4.403 107.199h370.83"/><path d="m4.403 105.364h370.83"/><path d="m4.403 103.529h370.83"/><path d="m0 0h370.83" transform="translate(4.403 102)"/><path d="m0 0h370.83" transform="translate(4.403 100.587)"/><g opacity=".5" transform="translate(.35 .25)"><g stroke-linejoin="round"><path d="m-7172.25-5546.79-48.859-55.042-26.891 27.222" transform="translate(7544.478 5601.832)"/><path d="m-7127.793-5493.383 49.4-36.211 18.615 18.615 9.953-9.952 9.952 9.952h17.695l29.439-29.439 26.321 26.322 50.439-50.438 24.117 24.117 43.259-43.26 26.431 26.431-39.612 10.982" transform="translate(7127.793 5593.737)"/><path d="m-7185.61-5566.194-13.072-13.072-8.342 8.431-43.038 50.225-2.257-44.737 17.946-36.383 8.251 53.1 24.78-15.753 15.731 33.617-64.451 10.25 66.844 18.791" transform="translate(7557.839 5601.786)"/><path d="m-6900.286-5492.687 16.33-16.33 11.646 11.646 1.542 34.07" transform="translate(7050.326 5560.446)"/><path d="m-6983.02-5462.315 18 18 23.023-23.023 23.023 23.023" transform="translate(7144.379 5541.865)"/><path d="m-7160.288-5505.914 33.308 33.309 9.287-9.287 12.466-12.465 32.78 32.971" transform="translate(7396.073 5559.063)"/><path d="m-7066.74-5005.2-13.359 36.977 24.981 17.473-45.854-2.635 20.873-14.838" transform="translate(7345.876 5015.526)"/><path d="m-6988.246-4916.1-6.794 32.833-14.952-11.067-17.44 11.067-73.541-34.452 58.046-9.765 15.5 44.216-42.124-39.691" transform="translate(7279.005 4980.871)"/></g><path d="m-6866.7-4930.736-9.908 23.113" transform="translate(7033.134 4982.321)"/><path d="m-6808.262-4927.482 30.6 44.38-60.226-14.755-6.017 14.7-31.429-14.934 19.853-.029-13.386-6.458" stroke-linejoin="round" transform="translate(6943.396 4980.871)"/><path d="m-6685.892-4907.9-31.351 33.34 60.086-9.807-40.567-10.613" stroke-linejoin="round" transform="translate(6735.289 4972.138)"/></g><g stroke-linejoin="round"><path d="m-7172.25-5546.79-48.859-55.042-26.891 27.222" transform="translate(7547.598 5604.853)"/><path d="m-7127.793-5496.158 47.551-33.593 18.594 18.562 9.941-9.924 9.941 9.924h17.674l29.406-29.354 26.292 26.245 50.381-50.292 24.09 24.047 43.21-43.135 26.4 26.354-39.567 10.951" transform="translate(7133.051 5596.758)"/><path d="m-7181.292-5566.194-13.071-13.072-8.342 8.431-43.039 50.225-2.257-44.737 17.946-36.383 8.252 53.1 24.779-15.753 15.731 33.617-64.452 10.25 64.452 16.273" transform="translate(7556.641 5604.807)"/><path d="m-6900.286-5492.687 16.33-16.33 11.646 11.646 1.542 34.07" transform="translate(7053.446 5563.467)"/><path d="m-6983.02-5462.315 18 18 23.023-23.023 23.023 23.023" transform="translate(7147.499 5544.886)"/><path d="m-7160.288-5505.914 33.308 33.309 9.287-9.287 12.466-12.465 32.78 32.971" transform="translate(7399.194 5562.084)"/><path d="m-7066.74-5005.2-13.359 36.977 24.981 17.473-45.854-2.635 20.873-14.838" transform="translate(7348.996 5018.547)"/><path d="m-6988.246-4916.1-6.794 32.833-14.952-11.067-17.44 11.067-73.541-34.452 58.046-9.765 15.5 44.216-42.124-39.691" transform="translate(7282.125 4983.892)"/></g><path d="m-6866.7-4930.736-9.908 23.113" transform="translate(7036.254 4985.342)"/><path d="m-6808.262-4927.482 30.6 44.38-60.226-14.755-6.017 14.7-31.429-14.934 19.853-.029-13.386-6.458" stroke-linejoin="round" transform="translate(6946.517 4983.892)"/><path d="m-6685.892-4907.9-31.351 33.34 60.086-9.807-40.567-10.613" stroke-linejoin="round" transform="translate(6738.409 4975.159)"/></g></svg>