<svg xmlns="http://www.w3.org/2000/svg" width="1401.138" height="543.023" viewBox="0 0 1401.138 543.023">
  <g id="Group_26218" data-name="Group 26218" transform="translate(-2670.462 19140.5)">
    <g id="Group_25990" data-name="Group 25990" transform="translate(2671.031 -18958.168)">
      <path id="Path_9817" data-name="Path 9817" d="M0,0,78.744,6.742" transform="translate(1320.651 0.106)" fill="none" stroke="#e1e1e1" stroke-linecap="round" stroke-width="1"/>
      <path id="Path_9818" data-name="Path 9818" d="M78.743,0,0,6.742" transform="translate(0.606 0.106)" fill="none" stroke="#e1e1e1" stroke-linecap="round" stroke-width="1"/>
      <path id="Path_9819" data-name="Path 9819" d="M0,0,182.529,359.47" transform="translate(726.882 0.104)" fill="none" stroke="#e1e1e1" stroke-linecap="round" stroke-width="1"/>
      <path id="Path_9820" data-name="Path 9820" d="M182.529,0,0,359.47" transform="translate(490.59 0.104)" fill="none" stroke="#e1e1e1" stroke-linecap="round" stroke-width="1"/>
      <path id="Path_9821" data-name="Path 9821" d="M0,0,547.688,359.9" transform="translate(780.927 0.104)" fill="none" stroke="#e1e1e1" stroke-linecap="round" stroke-width="1"/>
      <path id="Path_9822" data-name="Path 9822" d="M547.688,0,0,359.9" transform="translate(71.386 0.104)" fill="none" stroke="#e1e1e1" stroke-linecap="round" stroke-width="1"/>
      <path id="Path_9823" data-name="Path 9823" d="M0,0,564.027,222.286" transform="translate(835.098 0.132)" fill="none" stroke="#e1e1e1" stroke-linecap="round" stroke-width="1"/>
      <path id="Path_9824" data-name="Path 9824" d="M564.028,0,0,222.286" transform="translate(0.875 0.132)" fill="none" stroke="#e1e1e1" stroke-linecap="round" stroke-width="1"/>
      <path id="Path_9825" data-name="Path 9825" d="M0,0,509.909,143.588" transform="translate(889.004 0.104)" fill="none" stroke="#e1e1e1" stroke-linecap="round" stroke-width="1"/>
      <path id="Path_9826" data-name="Path 9826" d="M509.91,0,0,143.588" transform="translate(1.087 0.104)" fill="none" stroke="#e1e1e1" stroke-linecap="round" stroke-width="1"/>
      <path id="Path_9827" data-name="Path 9827" d="M456.453,99.806,0,0" transform="translate(942.561 0.039)" fill="none" stroke="#e1e1e1" stroke-linecap="round" stroke-width="1"/>
      <path id="Path_9828" data-name="Path 9828" d="M0,99.806,456.453,0" transform="translate(0.986 0.039)" fill="none" stroke="#e1e1e1" stroke-linecap="round" stroke-width="1"/>
      <path id="Path_9829" data-name="Path 9829" d="M0,0,400.608,72.391" transform="translate(997.958 0.039)" fill="none" stroke="#e1e1e1" stroke-linecap="round" stroke-width="1"/>
      <path id="Path_9830" data-name="Path 9830" d="M400.608,0,0,72.391" transform="translate(1.435 0.04)" fill="none" stroke="#e1e1e1" stroke-linecap="round" stroke-width="1"/>
      <path id="Path_9831" data-name="Path 9831" d="M0,0,347.938,52.435" transform="translate(1052.062 0.039)" fill="none" stroke="#e1e1e1" stroke-linecap="round" stroke-width="1"/>
      <path id="Path_9832" data-name="Path 9832" d="M347.938,0,0,52.435" transform="translate(0 0.039)" fill="none" stroke="#e1e1e1" stroke-linecap="round" stroke-width="1"/>
      <path id="Path_9833" data-name="Path 9833" d="M0,0,293.541,38.838" transform="translate(1105.78 0.039)" fill="none" stroke="#e1e1e1" stroke-linecap="round" stroke-width="1"/>
      <path id="Path_9834" data-name="Path 9834" d="M293.541,0,0,38.838" transform="translate(0.679 0.04)" fill="none" stroke="#e1e1e1" stroke-linecap="round" stroke-width="1"/>
      <path id="Path_9835" data-name="Path 9835" d="M0,0,240.009,27.845" transform="translate(1159.857 0.132)" fill="none" stroke="#e1e1e1" stroke-linecap="round" stroke-width="1"/>
      <path id="Path_9836" data-name="Path 9836" d="M240.009,0,0,27.845" transform="translate(0.132 0.132)" fill="none" stroke="#e1e1e1" stroke-linecap="round" stroke-width="1"/>
      <path id="Path_9837" data-name="Path 9837" d="M0,0,185.7,19.4" transform="translate(1213.989 0.019)" fill="none" stroke="#e1e1e1" stroke-linecap="round" stroke-width="1"/>
      <path id="Path_9838" data-name="Path 9838" d="M185.7,0,0,19.4" transform="translate(0.311 0.019)" fill="none" stroke="#e1e1e1" stroke-linecap="round" stroke-width="1"/>
      <path id="Path_9839" data-name="Path 9839" d="M0,0,132.872,12.475" transform="translate(1266.526 0)" fill="none" stroke="#e1e1e1" stroke-linecap="round" stroke-width="1"/>
      <path id="Path_9840" data-name="Path 9840" d="M132.872,0,0,12.475" transform="translate(0.602 0)" fill="none" stroke="#e1e1e1" stroke-linecap="round" stroke-width="1"/>
      <line id="Line_163" data-name="Line 163" x2="1399.11" transform="translate(0.45 334.202)" fill="none" stroke="#e1e1e1" stroke-linecap="round" stroke-width="1"/>
      <line id="Line_164" data-name="Line 164" x2="1399.11" transform="translate(0.45 285.627)" fill="none" stroke="#e1e1e1" stroke-linecap="round" stroke-width="1"/>
      <line id="Line_165" data-name="Line 165" x2="1399.11" transform="translate(0.45 242.55)" fill="none" stroke="#e1e1e1" stroke-linecap="round" stroke-width="1"/>
      <line id="Line_166" data-name="Line 166" x2="1399.11" transform="translate(0.45 204.973)" fill="none" stroke="#e1e1e1" stroke-linecap="round" stroke-width="1"/>
      <line id="Line_167" data-name="Line 167" x2="1399.11" transform="translate(0.45 171.978)" fill="none" stroke="#e1e1e1" stroke-linecap="round" stroke-width="1"/>
      <line id="Line_168" data-name="Line 168" x2="1399.11" transform="translate(0.45 143.565)" fill="none" stroke="#e1e1e1" stroke-linecap="round" stroke-width="1"/>
      <line id="Line_169" data-name="Line 169" x2="1399.11" transform="translate(0.45 118.82)" fill="none" stroke="#e1e1e1" stroke-linecap="round" stroke-width="1"/>
      <line id="Line_170" data-name="Line 170" x2="1399.11" transform="translate(0.45 79.41)" fill="none" stroke="#e1e1e1" stroke-linecap="round" stroke-width="1"/>
      <line id="Line_171" data-name="Line 171" x2="1399.11" transform="translate(0.45 64.746)" fill="none" stroke="#e1e1e1" stroke-linecap="round" stroke-width="1"/>
      <line id="Line_172" data-name="Line 172" x2="1399.11" transform="translate(0.45 51.915)" fill="none" stroke="#e1e1e1" stroke-linecap="round" stroke-width="1"/>
      <line id="Line_173" data-name="Line 173" x2="1399.11" transform="translate(0.45 40.916)" fill="none" stroke="#e1e1e1" stroke-linecap="round" stroke-width="1"/>
      <line id="Line_174" data-name="Line 174" x2="1399.11" transform="translate(0.45 32.668)" fill="none" stroke="#e1e1e1" stroke-linecap="round" stroke-width="1"/>
      <line id="Line_175" data-name="Line 175" x2="1399.11" transform="translate(0.45 25.336)" fill="none" stroke="#e1e1e1" stroke-linecap="round" stroke-width="1"/>
      <line id="Line_176" data-name="Line 176" x2="1399.11" transform="translate(0.45 19.836)" fill="none" stroke="#e1e1e1" stroke-linecap="round" stroke-width="1"/>
      <line id="Line_177" data-name="Line 177" x2="1399.11" transform="translate(0.45 14.337)" fill="none" stroke="#e1e1e1" stroke-linecap="round" stroke-width="1"/>
      <line id="Line_178" data-name="Line 178" x2="1399.11" transform="translate(0.45 8.838)" fill="none" stroke="#e1e1e1" stroke-linecap="round" stroke-width="1"/>
      <path id="Path_9841" data-name="Path 9841" d="M0,0H1399.11" transform="translate(0.45 4.256)" fill="none" stroke="#e1e1e1" stroke-linecap="round" stroke-width="1"/>
      <path id="Path_9842" data-name="Path 9842" d="M0,0H1399.11" transform="translate(0.45 0.02)" fill="none" stroke="#e1e1e1" stroke-linecap="round" stroke-width="1"/>
    </g>
    <g id="Group_25996" data-name="Group 25996" transform="translate(3394 -19140)">
      <g id="Group_25994" data-name="Group 25994" opacity="0.5">
        <path id="Path_9865" data-name="Path 9865" d="M-7111.293-5502.5l-88.176-99.336L-7248-5552.7" transform="translate(7783.055 5601.832)" fill="none" stroke="#e0e0e0" stroke-linecap="round" stroke-linejoin="round" stroke-width="1"/>
        <path id="Path_9866" data-name="Path 9866" d="M-7127.793-5420.722l89.151-65.35,33.595,33.595,17.961-17.961,17.961,17.961h31.934l53.129-53.129,47.5,47.5,91.026-91.026,43.524,43.524,78.071-78.071,47.7,47.7-71.488,19.82" transform="translate(7127.793 5601.832)" fill="none" stroke="#e0e0e0" stroke-linecap="round" stroke-linejoin="round" stroke-width="1"/>
        <path id="Path_9867" data-name="Path 9867" d="M-7131.93-5537.6l-23.59-23.59-15.055,15.216-77.671,90.641-4.074-80.737,32.388-65.66,14.892,95.838,44.72-28.43,28.389,60.668-116.315,18.5,120.635,33.912" transform="translate(7803.692 5601.832)" fill="none" stroke="#e0e0e0" stroke-linecap="round" stroke-linejoin="round" stroke-width="1"/>
        <path id="Path_9868" data-name="Path 9868" d="M-6900.286-5479.546l29.47-29.471L-6849.8-5488l2.784,61.485" transform="translate(7171.063 5601.832)" fill="none" stroke="#e0e0e0" stroke-linecap="round" stroke-linejoin="round" stroke-width="1"/>
        <path id="Path_9869" data-name="Path 9869" d="M-6983.02-5458.27l32.478,32.478,41.55-41.55,41.549,41.55" transform="translate(7274.225 5601.832)" fill="none" stroke="#e0e0e0" stroke-linecap="round" stroke-linejoin="round" stroke-width="1"/>
        <path id="Path_9870" data-name="Path 9870" d="M-7160.288-5505.914l60.111,60.111,16.76-16.76,22.5-22.5,59.159,59.5" transform="translate(7585.81 5601.832)" fill="none" stroke="#e0e0e0" stroke-linecap="round" stroke-linejoin="round" stroke-width="1"/>
        <path id="Path_9871" data-name="Path 9871" d="M-7039.193-5005.2l-24.109,66.731,45.085,31.534-82.754-4.756,37.669-26.777" transform="translate(7542.952 5023.832)" fill="none" stroke="#e0e0e0" stroke-linecap="round" stroke-linejoin="round" stroke-width="1"/>
        <path id="Path_9872" data-name="Path 9872" d="M-6897.534-4906.939l-12.261,59.253-26.984-19.974-31.473,19.974-132.721-62.175,104.757-17.622,27.964,79.8-76.021-71.63" transform="translate(7422.268 5023.832)" fill="none" stroke="#e0e0e0" stroke-linecap="round" stroke-linejoin="round" stroke-width="1"/>
        <path id="Path_9873" data-name="Path 9873" d="M-6858.725-4930.736l-17.881,41.713" transform="translate(7159.092 5023.832)" fill="none" stroke="#e0e0e0" stroke-linecap="round" stroke-width="1"/>
        <path id="Path_9874" data-name="Path 9874" d="M-6754.287-4927.482l55.22,80.092-108.69-26.627-10.859,26.528-56.721-26.952,35.829-.051-24.158-11.656" transform="translate(6998.165 5023.832)" fill="none" stroke="#e0e0e0" stroke-linecap="round" stroke-linejoin="round" stroke-width="1"/>
        <path id="Path_9875" data-name="Path 9875" d="M-6660.664-4907.9l-56.578,60.168,108.435-17.7-73.21-19.153" transform="translate(6749.811 5023.832)" fill="none" stroke="#e0e0e0" stroke-linecap="round" stroke-linejoin="round" stroke-width="1"/>
      </g>
      <g id="Group_25995" data-name="Group 25995" transform="translate(8.858 5)">
        <path id="Path_9876" data-name="Path 9876" d="M-7111.293-5502.5l-88.176-99.336L-7248-5552.7" transform="translate(7779.197 5601.832)" fill="none" stroke="#e0e0e0" stroke-linecap="round" stroke-linejoin="round" stroke-width="1"/>
        <path id="Path_9877" data-name="Path 9877" d="M-7127.793-5425.73l85.817-60.625,33.557,33.5,17.941-17.909,17.941,17.909h31.9l53.068-52.975,47.449,47.365,90.923-90.763,43.475,43.4,77.982-77.845,47.647,47.563-71.407,19.763" transform="translate(7127.793 5601.832)" fill="none" stroke="#e0e0e0" stroke-linecap="round" stroke-linejoin="round" stroke-width="1"/>
        <path id="Path_9878" data-name="Path 9878" d="M-7127.611-5537.6l-23.59-23.59-15.055,15.216-77.671,90.641-4.074-80.737,32.388-65.66,14.892,95.838,44.72-28.43,28.389,60.668-116.315,18.5,116.315,29.368" transform="translate(7795.516 5601.832)" fill="none" stroke="#e0e0e0" stroke-linecap="round" stroke-linejoin="round" stroke-width="1"/>
        <path id="Path_9879" data-name="Path 9879" d="M-6900.286-5479.546l29.47-29.471L-6849.8-5488l2.784,61.485" transform="translate(7167.205 5601.832)" fill="none" stroke="#e0e0e0" stroke-linecap="round" stroke-linejoin="round" stroke-width="1"/>
        <path id="Path_9880" data-name="Path 9880" d="M-6983.02-5458.27l32.478,32.478,41.55-41.55,41.549,41.55" transform="translate(7270.367 5601.832)" fill="none" stroke="#e0e0e0" stroke-linecap="round" stroke-linejoin="round" stroke-width="1"/>
        <path id="Path_9881" data-name="Path 9881" d="M-7160.288-5505.914l60.111,60.111,16.76-16.76,22.5-22.5,59.159,59.5" transform="translate(7581.952 5601.832)" fill="none" stroke="#e0e0e0" stroke-linecap="round" stroke-linejoin="round" stroke-width="1"/>
        <path id="Path_9882" data-name="Path 9882" d="M-7039.193-5005.2l-24.109,66.731,45.085,31.534-82.754-4.756,37.669-26.777" transform="translate(7539.094 5023.832)" fill="none" stroke="#e0e0e0" stroke-linecap="round" stroke-linejoin="round" stroke-width="1"/>
        <path id="Path_9883" data-name="Path 9883" d="M-6897.534-4906.939l-12.261,59.253-26.984-19.974-31.473,19.974-132.721-62.175,104.757-17.622,27.964,79.8-76.021-71.63" transform="translate(7418.41 5023.832)" fill="none" stroke="#e0e0e0" stroke-linecap="round" stroke-linejoin="round" stroke-width="1"/>
        <path id="Path_9884" data-name="Path 9884" d="M-6858.725-4930.736l-17.881,41.713" transform="translate(7155.234 5023.832)" fill="none" stroke="#e0e0e0" stroke-linecap="round" stroke-width="1"/>
        <path id="Path_9885" data-name="Path 9885" d="M-6754.287-4927.482l55.22,80.092-108.69-26.627-10.859,26.528-56.721-26.952,35.829-.051-24.158-11.656" transform="translate(6994.307 5023.832)" fill="none" stroke="#e0e0e0" stroke-linecap="round" stroke-linejoin="round" stroke-width="1"/>
        <path id="Path_9886" data-name="Path 9886" d="M-6660.664-4907.9l-56.578,60.168,108.435-17.7-73.21-19.153" transform="translate(6745.953 5023.832)" fill="none" stroke="#e0e0e0" stroke-linecap="round" stroke-linejoin="round" stroke-width="1"/>
      </g>
    </g>
  </g>
</svg>
