<svg xmlns="http://www.w3.org/2000/svg" width="30" height="30" viewBox="0 0 30 30">
    <defs>
        <style>
            .cls-1{fill:#fff}
        </style>
    </defs>
    <path id="Subtraction_83" d="M15 30a15.111 15.111 0 0 1-3.023-.3 14.918 14.918 0 0 1-5.364-2.257 15.044 15.044 0 0 1-5.435-6.6 14.925 14.925 0 0 1-.878-2.82 15.146 15.146 0 0 1 0-6.046 14.918 14.918 0 0 1 2.262-5.364 15.044 15.044 0 0 1 6.6-5.435A14.924 14.924 0 0 1 11.977.3a15.146 15.146 0 0 1 6.046 0 14.918 14.918 0 0 1 5.364 2.257 15.044 15.044 0 0 1 5.435 6.6 14.924 14.924 0 0 1 .874 2.816 15.146 15.146 0 0 1 0 6.046 14.918 14.918 0 0 1-2.257 5.364 15.044 15.044 0 0 1-6.6 5.435 14.924 14.924 0 0 1-2.816.874A15.111 15.111 0 0 1 15 30zM11.287 5.474a15.885 15.885 0 0 0-5.538.932l-.184.084a.022.022 0 0 0-.012.012l-.073.188c-1.55 3.925-1.99 10.588-1.52 14.762l.025.219.174.135a16.985 16.985 0 0 0 7.691 3.1l.263.033h.023a.187.187 0 0 0 .174-.121l1.325-3.539a.186.186 0 0 0-.145-.249l-.407-.064a10.868 10.868 0 0 1-2.457-.682 9.138 9.138 0 0 1-2.667-1.67.045.045 0 0 1 .028-.078h.016c.141.052.3.113.447.172a9.552 9.552 0 0 0 1.04.367 23.77 23.77 0 0 0 5.49.652V19.7v.032a23.745 23.745 0 0 0 5.485-.652 9.547 9.547 0 0 0 1.04-.367c.151-.059.306-.12.447-.172h.016a.045.045 0 0 1 .028.078 9.1 9.1 0 0 1-2.663 1.663 10.921 10.921 0 0 1-2.46.681l-.406.064a.186.186 0 0 0-.146.249l1.325 3.548a.187.187 0 0 0 .174.121h.023l.263-.033a16.985 16.985 0 0 0 7.691-3.1l.174-.135.029-.225c.469-4.174.029-10.837-1.52-14.763l-.072-.189a.023.023 0 0 0-.008-.01l-.184-.083a15.885 15.885 0 0 0-5.538-.932h-2.131a.023.023 0 0 0-.01.043l4.37 2.1a.021.021 0 0 1 .012.025.022.022 0 0 1-.021.018h-.006a22.986 22.986 0 0 0-11.8 0h-.011a.022.022 0 0 1-.021-.018.021.021 0 0 1 .013-.025L13.6 5.517a.022.022 0 0 0 .013-.025.022.022 0 0 0-.022-.018zm8.259 10.863a2.615 2.615 0 0 1-1.082-.232 2.641 2.641 0 0 1-1.548-2.65 2.6 2.6 0 0 1 .243-.89 2.667 2.667 0 0 1 1.256-1.256 2.6 2.6 0 0 1 .89-.243c.08-.007.161-.011.241-.011a2.615 2.615 0 0 1 1.082.232 2.641 2.641 0 0 1 1.549 2.65 2.6 2.6 0 0 1-.243.89 2.667 2.667 0 0 1-1.256 1.256 2.6 2.6 0 0 1-.89.243 2.817 2.817 0 0 1-.242.011zm-9.13 0a2.615 2.615 0 0 1-1.083-.237 2.641 2.641 0 0 1-1.548-2.65 2.6 2.6 0 0 1 .243-.89 2.667 2.667 0 0 1 1.256-1.256 2.6 2.6 0 0 1 .89-.243c.08-.007.161-.011.241-.011a2.615 2.615 0 0 1 1.082.232 2.641 2.641 0 0 1 1.549 2.65 2.6 2.6 0 0 1-.243.89 2.667 2.667 0 0 1-1.256 1.256 2.6 2.6 0 0 1-.89.243c-.08.012-.157.016-.241.016z" class="cls-1" data-name="Subtraction 83"/>
</svg>
