<svg xmlns="http://www.w3.org/2000/svg" xmlns:xlink="http://www.w3.org/1999/xlink" viewBox="0 0 80 22.226">
  <defs>
    <linearGradient id="a" x1="-1.999" x2="1.962" y1="1.034" y2=".112" gradientUnits="objectBoundingBox">
      <stop offset="0" stop-color="#30bac6"/>
      <stop offset="1" stop-color="#b6509e"/>
    </linearGradient>
    <linearGradient id="b" x1="-4.048" x2="1.181" y1="1.315" y2=".379" xlink:href="#a"/>
    <linearGradient id="c" x1="-1.123" x2="2.834" y1=".926" y2=".004" xlink:href="#a"/>
    <linearGradient id="d" x1="-.051" x2="3.906" y1=".677" y2="-.246" xlink:href="#a"/>
  </defs>
  <g data-name="Group 10477">
    <g data-name="Aave Logo Colored">
      <g data-name="Group 4051">
        <path fill="url(#a)" d="M227.946 20.778L220.2 1.981a1.652 1.652 0 01-.1-.533A1.473 1.473 0 01220.481.4a1.334 1.334 0 011.028-.4 1.389 1.389 0 01.8.267 1.7 1.7 0 01.552.7l7.37 18.4L237.6.971a1.7 1.7 0 01.552-.7 1.389 1.389 0 01.8-.267 1.334 1.334 0 011.028.4 1.473 1.473 0 01.381 1.047 1.652 1.652 0 01-.1.533l-7.751 18.8a2.085 2.085 0 01-1.942 1.447h-.686a2.085 2.085 0 01-1.936-1.453z" data-name="Path 2431" transform="translate(-178.605)"/>
        <path fill="url(#b)" d="M342.1 22.3a1.378 1.378 0 01-.4-1.009V2.247a1.454 1.454 0 01.4-1.028A1.323 1.323 0 01343.109.8H355.7a1.251 1.251 0 01.952.4 1.28 1.28 0 01.4.952 1.21 1.21 0 01-.4.933 1.338 1.338 0 01-.952.381h-11.14V10.4h10.017a1.251 1.251 0 01.952.4 1.311 1.311 0 01.4.952 1.211 1.211 0 01-.4.933 1.338 1.338 0 01-.952.381h-10.02v6.971H355.7a1.251 1.251 0 01.952.4 1.28 1.28 0 01.4.952 1.21 1.21 0 01-.4.933 1.338 1.338 0 01-.952.381h-12.591a1.244 1.244 0 01-1.009-.403z" data-name="Path 2432" transform="translate(-277.049 -.648)"/>
        <path fill="url(#c)" d="M143.986 20.245l-7.751-18.8A2.085 2.085 0 00134.293 0h-.686a2.085 2.085 0 00-1.942 1.447l-3.371 8.189h-2.552a1.4 1.4 0 00-1.39 1.39v.019a1.4 1.4 0 001.39 1.39h1.371l-3.213 7.81a1.652 1.652 0 00-.1.533 1.473 1.473 0 00.381 1.047 1.334 1.334 0 001.028.4 1.389 1.389 0 00.8-.267 1.7 1.7 0 00.552-.7l3.542-8.818h2.438a1.4 1.4 0 001.39-1.39v-.038a1.4 1.4 0 00-1.39-1.39h-1.314l2.723-6.761 7.37 18.4a1.7 1.7 0 00.552.7 1.389 1.389 0 00.8.267 1.334 1.334 0 001.028-.4 1.473 1.473 0 00.381-1.047 1.262 1.262 0 00-.095-.536z" data-name="Path 2433" transform="translate(-100.644)"/>
        <path fill="url(#d)" d="M22.386 20.245l-7.751-18.8A2.085 2.085 0 0012.693 0h-.686a2.085 2.085 0 00-1.942 1.447l-3.371 8.19H4.142a1.4 1.4 0 00-1.39 1.39v.019a1.4 1.4 0 001.39 1.39h1.371L2.3 20.245a1.652 1.652 0 00-.1.533 1.473 1.473 0 00.381 1.047 1.334 1.334 0 001.028.4 1.389 1.389 0 00.8-.267 1.7 1.7 0 00.552-.7L8.5 12.436h2.46a1.4 1.4 0 001.39-1.39v-.038a1.4 1.4 0 00-1.39-1.39H9.646l2.7-6.761 7.37 18.4a1.7 1.7 0 00.552.7 1.389 1.389 0 00.8.267 1.334 1.334 0 001.028-.4 1.473 1.473 0 00.381-1.047 1.263 1.263 0 00-.091-.532z" data-name="Path 2434" transform="translate(-2.2)"/>
      </g>
    </g>
  </g>
</svg>