<svg xmlns="http://www.w3.org/2000/svg" width="30" height="30" viewBox="0 0 30 30">
    <defs>
        <style>
            .cls-1{fill:#fff}
        </style>
    </defs>
    <path id="Subtraction_68" d="M15 30A15 15 0 0 1 9.161 1.179a15 15 0 0 1 11.678 27.642A14.906 14.906 0 0 1 15 30zm-8.288-8.31a10.16 10.16 0 0 0 5.5 1.611 10.329 10.329 0 0 0 4.376-.928 9.651 9.651 0 0 0 3.2-2.4 10.554 10.554 0 0 0 2.621-6.873c0-.159 0-.315-.01-.464a7.23 7.23 0 0 0 1.789-1.855 7.177 7.177 0 0 1-2.059.564 3.59 3.59 0 0 0 1.576-1.985 7.171 7.171 0 0 1-2.277.87 3.588 3.588 0 0 0-6.11 3.271 10.1 10.1 0 0 1-4.149-1.116 10.173 10.173 0 0 1-3.241-2.631 3.59 3.59 0 0 0 1.109 4.787 3.585 3.585 0 0 1-1.624-.449v.045a3.593 3.593 0 0 0 2.876 3.515 3.56 3.56 0 0 1-.944.126 3.62 3.62 0 0 1-.674-.064 3.585 3.585 0 0 0 3.349 2.49 7.151 7.151 0 0 1-4.453 1.536 7.239 7.239 0 0 1-.855-.05z" class="cls-1" data-name="Subtraction 68"/>
</svg>
